<mxfile host="app.diagrams.net" modified="2022-03-03T09:49:20.765Z" agent="5.0 (Macintosh; Intel Mac OS X 10_15_7) AppleWebKit/537.36 (KHTML, like Gecko) Chrome/98.0.4758.102 Safari/537.36" etag="_9Z6QlD0jSLimy8Wm1w8" version="16.6.5" type="github">
  <diagram id="prtHgNgQTEPvFCAcTncT" name="Page-1">
    <mxGraphModel dx="1186" dy="764" grid="1" gridSize="10" guides="1" tooltips="1" connect="1" arrows="1" fold="1" page="1" pageScale="1" pageWidth="827" pageHeight="1169" math="0" shadow="0">
      <root>
        <mxCell id="0" />
        <mxCell id="1" parent="0" />
        <mxCell id="MWaIb_sKji3ZJbM-h5nQ-73" value="" style="sketch=0;pointerEvents=1;shadow=0;dashed=0;html=1;strokeColor=none;fillColor=#DF8C42;labelPosition=center;verticalLabelPosition=bottom;verticalAlign=top;align=center;outlineConnect=0;shape=mxgraph.veeam2.scheduled_backups;" vertex="1" parent="1">
          <mxGeometry x="542" y="552" width="34" height="34" as="geometry" />
        </mxCell>
        <mxCell id="MWaIb_sKji3ZJbM-h5nQ-90" style="edgeStyle=orthogonalEdgeStyle;rounded=0;orthogonalLoop=1;jettySize=auto;html=1;entryX=0;entryY=0.25;entryDx=0;entryDy=0;startArrow=none;startFill=0;strokeWidth=1;" edge="1" parent="1" source="MWaIb_sKji3ZJbM-h5nQ-2" target="MWaIb_sKji3ZJbM-h5nQ-87">
          <mxGeometry relative="1" as="geometry" />
        </mxCell>
        <mxCell id="MWaIb_sKji3ZJbM-h5nQ-2" value="file-consumer" style="rounded=1;whiteSpace=wrap;html=1;fillColor=#d5e8d4;strokeColor=#82b366;" vertex="1" parent="1">
          <mxGeometry x="150" y="290" width="100" height="30" as="geometry" />
        </mxCell>
        <mxCell id="MWaIb_sKji3ZJbM-h5nQ-92" style="edgeStyle=orthogonalEdgeStyle;rounded=0;orthogonalLoop=1;jettySize=auto;html=1;entryX=0;entryY=0.75;entryDx=0;entryDy=0;startArrow=none;startFill=0;strokeWidth=1;" edge="1" parent="1" source="MWaIb_sKji3ZJbM-h5nQ-3" target="MWaIb_sKji3ZJbM-h5nQ-87">
          <mxGeometry relative="1" as="geometry" />
        </mxCell>
        <mxCell id="MWaIb_sKji3ZJbM-h5nQ-3" value="kafka-consumer" style="rounded=1;whiteSpace=wrap;html=1;fillColor=#d5e8d4;strokeColor=#82b366;" vertex="1" parent="1">
          <mxGeometry x="150" y="430" width="100" height="30" as="geometry" />
        </mxCell>
        <mxCell id="MWaIb_sKji3ZJbM-h5nQ-91" style="edgeStyle=orthogonalEdgeStyle;rounded=0;orthogonalLoop=1;jettySize=auto;html=1;entryX=0;entryY=0.5;entryDx=0;entryDy=0;startArrow=none;startFill=0;strokeWidth=1;" edge="1" parent="1" source="MWaIb_sKji3ZJbM-h5nQ-4" target="MWaIb_sKji3ZJbM-h5nQ-87">
          <mxGeometry relative="1" as="geometry" />
        </mxCell>
        <mxCell id="MWaIb_sKji3ZJbM-h5nQ-4" value="reservation" style="rounded=1;whiteSpace=wrap;html=1;fillColor=#d5e8d4;strokeColor=#82b366;" vertex="1" parent="1">
          <mxGeometry x="150" y="364" width="100" height="30" as="geometry" />
        </mxCell>
        <mxCell id="MWaIb_sKji3ZJbM-h5nQ-5" value="api" style="rounded=1;whiteSpace=wrap;html=1;fillColor=#dae8fc;strokeColor=#6c8ebf;" vertex="1" parent="1">
          <mxGeometry x="610" y="240" width="100" height="30" as="geometry" />
        </mxCell>
        <mxCell id="MWaIb_sKji3ZJbM-h5nQ-6" value="snapshot-generator" style="rounded=1;whiteSpace=wrap;html=1;fillColor=#dae8fc;strokeColor=#6c8ebf;" vertex="1" parent="1">
          <mxGeometry x="610" y="364" width="100" height="30" as="geometry" />
        </mxCell>
        <mxCell id="MWaIb_sKji3ZJbM-h5nQ-7" value="stock-publisher" style="rounded=1;whiteSpace=wrap;html=1;fillColor=#dae8fc;strokeColor=#6c8ebf;" vertex="1" parent="1">
          <mxGeometry x="610" y="460" width="100" height="30" as="geometry" />
        </mxCell>
        <mxCell id="MWaIb_sKji3ZJbM-h5nQ-8" value="console-back" style="rounded=1;whiteSpace=wrap;html=1;fillColor=#f5f5f5;fontColor=#333333;strokeColor=#666666;" vertex="1" parent="1">
          <mxGeometry x="394" y="180" width="100" height="30" as="geometry" />
        </mxCell>
        <mxCell id="MWaIb_sKji3ZJbM-h5nQ-10" value="console-front" style="rounded=1;whiteSpace=wrap;html=1;fillColor=#f5f5f5;fontColor=#333333;strokeColor=#666666;" vertex="1" parent="1">
          <mxGeometry x="394" y="100" width="100" height="30" as="geometry" />
        </mxCell>
        <mxCell id="MWaIb_sKji3ZJbM-h5nQ-86" style="edgeStyle=orthogonalEdgeStyle;rounded=0;orthogonalLoop=1;jettySize=auto;html=1;startArrow=none;startFill=0;strokeWidth=1;entryX=0.5;entryY=1;entryDx=0;entryDy=0;entryPerimeter=0;" edge="1" parent="1" source="MWaIb_sKji3ZJbM-h5nQ-11" target="MWaIb_sKji3ZJbM-h5nQ-77">
          <mxGeometry relative="1" as="geometry">
            <mxPoint x="60" y="480" as="targetPoint" />
          </mxGeometry>
        </mxCell>
        <mxCell id="MWaIb_sKji3ZJbM-h5nQ-11" value="legacystocks-pulbisher" style="rounded=1;whiteSpace=wrap;html=1;fillColor=#ffe6cc;strokeColor=#d79b00;" vertex="1" parent="1">
          <mxGeometry x="340" y="530" width="100" height="30" as="geometry" />
        </mxCell>
        <mxCell id="MWaIb_sKji3ZJbM-h5nQ-94" style="edgeStyle=orthogonalEdgeStyle;rounded=0;orthogonalLoop=1;jettySize=auto;html=1;entryX=0.913;entryY=1;entryDx=0;entryDy=0;startArrow=none;startFill=0;strokeWidth=1;entryPerimeter=0;" edge="1" parent="1" source="MWaIb_sKji3ZJbM-h5nQ-13" target="MWaIb_sKji3ZJbM-h5nQ-87">
          <mxGeometry relative="1" as="geometry" />
        </mxCell>
        <mxCell id="MWaIb_sKji3ZJbM-h5nQ-13" value="mongo-scheduler" style="rounded=1;whiteSpace=wrap;html=1;fillColor=#ffe6cc;strokeColor=#d79b00;" vertex="1" parent="1">
          <mxGeometry x="450" y="530" width="100" height="30" as="geometry" />
        </mxCell>
        <mxCell id="MWaIb_sKji3ZJbM-h5nQ-24" style="edgeStyle=orthogonalEdgeStyle;rounded=0;orthogonalLoop=1;jettySize=auto;html=1;exitX=0.5;exitY=1;exitDx=0;exitDy=0;startArrow=block;startFill=1;entryX=0.5;entryY=0;entryDx=0;entryDy=0;" edge="1" parent="1" source="MWaIb_sKji3ZJbM-h5nQ-10" target="MWaIb_sKji3ZJbM-h5nQ-8">
          <mxGeometry relative="1" as="geometry">
            <mxPoint x="454" y="220" as="sourcePoint" />
            <mxPoint x="454" y="345" as="targetPoint" />
            <Array as="points">
              <mxPoint x="444" y="160" />
              <mxPoint x="444" y="160" />
            </Array>
          </mxGeometry>
        </mxCell>
        <mxCell id="MWaIb_sKji3ZJbM-h5nQ-57" value="" style="shape=flexArrow;endArrow=classic;html=1;rounded=0;strokeWidth=1;" edge="1" parent="1">
          <mxGeometry width="50" height="50" relative="1" as="geometry">
            <mxPoint x="83" y="444.5" as="sourcePoint" />
            <mxPoint x="145" y="444.5" as="targetPoint" />
            <Array as="points">
              <mxPoint x="115" y="444.5" />
            </Array>
          </mxGeometry>
        </mxCell>
        <mxCell id="MWaIb_sKji3ZJbM-h5nQ-58" value="" style="shape=flexArrow;endArrow=classic;html=1;rounded=0;strokeWidth=1;" edge="1" parent="1">
          <mxGeometry width="50" height="50" relative="1" as="geometry">
            <mxPoint x="84" y="304.5" as="sourcePoint" />
            <mxPoint x="146" y="304.5" as="targetPoint" />
            <Array as="points">
              <mxPoint x="116" y="304.5" />
            </Array>
          </mxGeometry>
        </mxCell>
        <mxCell id="MWaIb_sKji3ZJbM-h5nQ-71" style="edgeStyle=orthogonalEdgeStyle;rounded=0;orthogonalLoop=1;jettySize=auto;html=1;startArrow=none;startFill=0;strokeWidth=1;" edge="1" parent="1" source="MWaIb_sKji3ZJbM-h5nQ-70" target="MWaIb_sKji3ZJbM-h5nQ-10">
          <mxGeometry relative="1" as="geometry" />
        </mxCell>
        <mxCell id="MWaIb_sKji3ZJbM-h5nQ-70" value="" style="sketch=0;aspect=fixed;html=1;points=[];align=center;image;fontSize=12;image=img/lib/mscae/Managed_Desktop.svg;" vertex="1" parent="1">
          <mxGeometry x="419" y="30" width="50" height="36" as="geometry" />
        </mxCell>
        <mxCell id="MWaIb_sKji3ZJbM-h5nQ-102" style="edgeStyle=orthogonalEdgeStyle;rounded=0;orthogonalLoop=1;jettySize=auto;html=1;exitX=0.005;exitY=0.63;exitDx=0;exitDy=0;exitPerimeter=0;entryX=1;entryY=0.5;entryDx=0;entryDy=0;startArrow=none;startFill=0;endArrow=none;endFill=0;strokeWidth=1;" edge="1" parent="1" source="MWaIb_sKji3ZJbM-h5nQ-74" target="MWaIb_sKji3ZJbM-h5nQ-5">
          <mxGeometry relative="1" as="geometry" />
        </mxCell>
        <mxCell id="MWaIb_sKji3ZJbM-h5nQ-74" value="" style="sketch=0;html=1;dashed=0;whitespace=wrap;fillColor=#2875E2;strokeColor=#ffffff;points=[[0.005,0.63,0],[0.1,0.2,0],[0.9,0.2,0],[0.5,0,0],[0.995,0.63,0],[0.72,0.99,0],[0.5,1,0],[0.28,0.99,0]];shape=mxgraph.kubernetes.icon;prIcon=api" vertex="1" parent="1">
          <mxGeometry x="752" y="225" width="50" height="48" as="geometry" />
        </mxCell>
        <mxCell id="MWaIb_sKji3ZJbM-h5nQ-76" style="edgeStyle=orthogonalEdgeStyle;rounded=0;orthogonalLoop=1;jettySize=auto;html=1;startArrow=none;startFill=0;strokeWidth=1;endArrow=none;endFill=0;" edge="1" parent="1" source="MWaIb_sKji3ZJbM-h5nQ-75" target="MWaIb_sKji3ZJbM-h5nQ-4">
          <mxGeometry relative="1" as="geometry" />
        </mxCell>
        <mxCell id="MWaIb_sKji3ZJbM-h5nQ-75" value="" style="sketch=0;html=1;dashed=0;whitespace=wrap;fillColor=#2875E2;strokeColor=#ffffff;points=[[0.005,0.63,0],[0.1,0.2,0],[0.9,0.2,0],[0.5,0,0],[0.995,0.63,0],[0.72,0.99,0],[0.5,1,0],[0.28,0.99,0]];shape=mxgraph.kubernetes.icon;prIcon=api" vertex="1" parent="1">
          <mxGeometry x="29" y="355.5" width="50" height="48" as="geometry" />
        </mxCell>
        <mxCell id="MWaIb_sKji3ZJbM-h5nQ-77" value="" style="sketch=0;points=[[0,0,0],[0.25,0,0],[0.5,0,0],[0.75,0,0],[1,0,0],[0,1,0],[0.25,1,0],[0.5,1,0],[0.75,1,0],[1,1,0],[0,0.25,0],[0,0.5,0],[0,0.75,0],[1,0.25,0],[1,0.5,0],[1,0.75,0]];outlineConnect=0;fontColor=#232F3E;gradientColor=#945DF2;gradientDirection=north;fillColor=#5A30B5;strokeColor=#ffffff;dashed=0;verticalLabelPosition=bottom;verticalAlign=top;align=center;html=1;fontSize=12;fontStyle=0;aspect=fixed;shape=mxgraph.aws4.resourceIcon;resIcon=mxgraph.aws4.managed_streaming_for_kafka;" vertex="1" parent="1">
          <mxGeometry x="34" y="430" width="40" height="40" as="geometry" />
        </mxCell>
        <mxCell id="MWaIb_sKji3ZJbM-h5nQ-83" value="" style="sketch=0;points=[[0,0,0],[0.25,0,0],[0.5,0,0],[0.75,0,0],[1,0,0],[0,1,0],[0.25,1,0],[0.5,1,0],[0.75,1,0],[1,1,0],[0,0.25,0],[0,0.5,0],[0,0.75,0],[1,0.25,0],[1,0.5,0],[1,0.75,0]];outlineConnect=0;fontColor=#232F3E;gradientColor=#945DF2;gradientDirection=north;fillColor=#5A30B5;strokeColor=#ffffff;dashed=0;verticalLabelPosition=bottom;verticalAlign=top;align=center;html=1;fontSize=12;fontStyle=0;aspect=fixed;shape=mxgraph.aws4.resourceIcon;resIcon=mxgraph.aws4.managed_streaming_for_kafka;" vertex="1" parent="1">
          <mxGeometry x="765" y="457" width="37" height="37" as="geometry" />
        </mxCell>
        <mxCell id="MWaIb_sKji3ZJbM-h5nQ-93" style="edgeStyle=orthogonalEdgeStyle;rounded=0;orthogonalLoop=1;jettySize=auto;html=1;exitX=0.15;exitY=0.988;exitDx=0;exitDy=0;entryX=0.5;entryY=0;entryDx=0;entryDy=0;startArrow=none;startFill=0;strokeWidth=1;exitPerimeter=0;" edge="1" parent="1" source="MWaIb_sKji3ZJbM-h5nQ-87" target="MWaIb_sKji3ZJbM-h5nQ-11">
          <mxGeometry relative="1" as="geometry" />
        </mxCell>
        <mxCell id="MWaIb_sKji3ZJbM-h5nQ-95" style="edgeStyle=orthogonalEdgeStyle;rounded=0;orthogonalLoop=1;jettySize=auto;html=1;exitX=1;exitY=0.25;exitDx=0;exitDy=0;entryX=0;entryY=0.5;entryDx=0;entryDy=0;startArrow=none;startFill=0;endArrow=block;endFill=1;strokeWidth=1;" edge="1" parent="1" source="MWaIb_sKji3ZJbM-h5nQ-87" target="MWaIb_sKji3ZJbM-h5nQ-5">
          <mxGeometry relative="1" as="geometry" />
        </mxCell>
        <mxCell id="MWaIb_sKji3ZJbM-h5nQ-96" style="edgeStyle=orthogonalEdgeStyle;rounded=0;orthogonalLoop=1;jettySize=auto;html=1;entryX=0.5;entryY=1;entryDx=0;entryDy=0;startArrow=none;startFill=0;endArrow=block;endFill=1;strokeWidth=1;" edge="1" parent="1" source="MWaIb_sKji3ZJbM-h5nQ-87" target="MWaIb_sKji3ZJbM-h5nQ-8">
          <mxGeometry relative="1" as="geometry" />
        </mxCell>
        <mxCell id="MWaIb_sKji3ZJbM-h5nQ-97" style="edgeStyle=orthogonalEdgeStyle;rounded=0;orthogonalLoop=1;jettySize=auto;html=1;exitX=1;exitY=0.75;exitDx=0;exitDy=0;entryX=0;entryY=0.5;entryDx=0;entryDy=0;startArrow=none;startFill=0;endArrow=block;endFill=1;strokeWidth=1;" edge="1" parent="1" source="MWaIb_sKji3ZJbM-h5nQ-87" target="MWaIb_sKji3ZJbM-h5nQ-7">
          <mxGeometry relative="1" as="geometry" />
        </mxCell>
        <mxCell id="MWaIb_sKji3ZJbM-h5nQ-98" style="edgeStyle=orthogonalEdgeStyle;rounded=0;orthogonalLoop=1;jettySize=auto;html=1;exitX=1;exitY=0.5;exitDx=0;exitDy=0;startArrow=none;startFill=0;endArrow=block;endFill=1;strokeWidth=1;" edge="1" parent="1" source="MWaIb_sKji3ZJbM-h5nQ-87" target="MWaIb_sKji3ZJbM-h5nQ-6">
          <mxGeometry relative="1" as="geometry" />
        </mxCell>
        <mxCell id="MWaIb_sKji3ZJbM-h5nQ-87" value="" style="image;html=1;image=img/lib/clip_art/computers/Database_128x128.png" vertex="1" parent="1">
          <mxGeometry x="404" y="339.5" width="80" height="80" as="geometry" />
        </mxCell>
        <mxCell id="MWaIb_sKji3ZJbM-h5nQ-99" value="" style="shape=flexArrow;endArrow=classic;html=1;rounded=0;strokeWidth=1;" edge="1" parent="1">
          <mxGeometry width="50" height="50" relative="1" as="geometry">
            <mxPoint x="716" y="379" as="sourcePoint" />
            <mxPoint x="748" y="379" as="targetPoint" />
            <Array as="points">
              <mxPoint x="748" y="379" />
            </Array>
          </mxGeometry>
        </mxCell>
        <mxCell id="MWaIb_sKji3ZJbM-h5nQ-107" value="" style="shape=flexArrow;endArrow=classic;html=1;rounded=0;strokeWidth=1;" edge="1" parent="1">
          <mxGeometry width="50" height="50" relative="1" as="geometry">
            <mxPoint x="720" y="474.5" as="sourcePoint" />
            <mxPoint x="752" y="474.5" as="targetPoint" />
            <Array as="points">
              <mxPoint x="752" y="474.5" />
            </Array>
          </mxGeometry>
        </mxCell>
        <mxCell id="MWaIb_sKji3ZJbM-h5nQ-111" value="" style="sketch=0;points=[[0,0,0],[0.25,0,0],[0.5,0,0],[0.75,0,0],[1,0,0],[0,1,0],[0.25,1,0],[0.5,1,0],[0.75,1,0],[1,1,0],[0,0.25,0],[0,0.5,0],[0,0.75,0],[1,0.25,0],[1,0.5,0],[1,0.75,0]];outlineConnect=0;fontColor=#232F3E;gradientColor=#945DF2;gradientDirection=north;fillColor=#5A30B5;strokeColor=#ffffff;dashed=0;verticalLabelPosition=bottom;verticalAlign=top;align=center;html=1;fontSize=12;fontStyle=0;aspect=fixed;shape=mxgraph.aws4.resourceIcon;resIcon=mxgraph.aws4.cloud_directory;" vertex="1" parent="1">
          <mxGeometry x="34" y="280" width="40" height="40" as="geometry" />
        </mxCell>
        <mxCell id="MWaIb_sKji3ZJbM-h5nQ-112" value="" style="sketch=0;points=[[0,0,0],[0.25,0,0],[0.5,0,0],[0.75,0,0],[1,0,0],[0,1,0],[0.25,1,0],[0.5,1,0],[0.75,1,0],[1,1,0],[0,0.25,0],[0,0.5,0],[0,0.75,0],[1,0.25,0],[1,0.5,0],[1,0.75,0]];outlineConnect=0;fontColor=#232F3E;gradientColor=#945DF2;gradientDirection=north;fillColor=#5A30B5;strokeColor=#ffffff;dashed=0;verticalLabelPosition=bottom;verticalAlign=top;align=center;html=1;fontSize=12;fontStyle=0;aspect=fixed;shape=mxgraph.aws4.resourceIcon;resIcon=mxgraph.aws4.cloud_directory;" vertex="1" parent="1">
          <mxGeometry x="758.5" y="353" width="50" height="50" as="geometry" />
        </mxCell>
      </root>
    </mxGraphModel>
  </diagram>
</mxfile>
